<?xml version="1.0" standalone="no"?>
<!DOCTYPE svg PUBLIC "-//W3C//DTD SVG 20010904//EN"
 "http://www.w3.org/TR/2001/REC-SVG-20010904/DTD/svg10.dtd">
<svg version="1.0" xmlns="http://www.w3.org/2000/svg"
 width="600.000000pt" height="600.000000pt" viewBox="0 0 600.000000 600.000000"
 preserveAspectRatio="xMidYMid meet">
<metadata>
Created by potrace 1.11, written by Peter Selinger 2001-2013
</metadata>
<g transform="translate(0.000000,600.000000) scale(0.100000,-0.100000)"
fill="#000000" stroke="none">
<path d="M2483 5836 c-220 -42 -423 -160 -562 -328 -78 -93 -163 -263 -193
-383 -28 -114 -31 -323 -5 -427 80 -327 310 -583 617 -690 189 -65 431 -65
620 0 239 83 434 260 545 494 170 358 97 782 -183 1066 -116 117 -278 211
-437 253 -103 27 -301 34 -402 15z"/>
<path d="M3945 4074 c-204 -33 -379 -120 -527 -262 -120 -116 -201 -251 -254
-427 -25 -81 -27 -106 -28 -245 -1 -182 17 -266 88 -415 53 -109 95 -169 183
-258 114 -115 255 -198 423 -249 95 -29 319 -36 431 -13 376 76 668 368 744
744 23 112 16 336 -13 431 -67 222 -192 400 -367 526 -81 57 -214 119 -312
145 -77 20 -298 34 -368 23z"/>
<path d="M2265 2064 c-328 -53 -585 -240 -725 -528 -174 -356 -111 -769 159
-1058 140 -149 302 -241 504 -283 88 -19 286 -19 374 0 197 41 372 140 506
284 75 82 111 135 163 245 101 213 117 457 47 681 -98 312 -352 553 -668 636
-79 20 -290 34 -360 23z"/>
</g>
</svg>
